<?xml version="1.0" encoding="utf-8"?>
<svg viewBox="0 0 380 380" xmlns="http://www.w3.org/2000/svg">
  <polygon style="stroke: rgb(0, 0, 0); fill: rgb(128, 32, 32); stroke-width: 0px;" points="69.834 86.577 189.834 16.577 189.834 296.577 69.834 226.577"/>
  <polygon style="stroke: rgb(128, 16, 16); stroke-width: 0px; fill: rgb(224, 96, 0);" points="309.834 226.577 189.834 296.577 189.834 16.577 309.834 86.577"/>
  <polygon style="stroke: rgb(0, 0, 0); paint-order: fill; vector-effect: non-scaling-stroke; stroke-width: 0px; fill: rgb(255, 255, 255);" points="109.834 76.577 149.834 76.577 189.834 116.577 229.834 76.577 269.834 76.577 269.834 116.577 229.834 156.577 269.834 196.577 269.834 236.577 229.834 236.577 189.834 196.577 149.834 236.577 109.834 236.577 109.834 196.577 149.834 156.577 109.834 116.577"/>
  <path d="M 31.361 363.202 C 25.894 363.202 21.154 361.979 17.141 359.532 C 13.134 357.085 10.074 353.809 7.961 349.702 C 5.854 345.602 4.801 341.079 4.801 336.132 C 4.801 330.899 5.941 326.219 8.221 322.092 C 10.501 317.965 13.704 314.739 17.831 312.412 C 21.958 310.085 26.638 308.922 31.871 308.922 C 34.224 308.922 36.421 309.172 38.461 309.672 C 40.501 310.179 42.191 310.755 43.531 311.402 C 44.878 312.049 45.768 312.589 46.201 313.022 L 42.671 320.222 C 39.744 317.629 35.928 316.332 31.221 316.332 C 27.908 316.332 24.908 317.149 22.221 318.782 C 19.534 320.415 17.421 322.742 15.881 325.762 C 14.348 328.789 13.581 332.295 13.581 336.282 C 13.581 339.929 14.264 343.239 15.631 346.212 C 16.998 349.192 19.001 351.545 21.641 353.272 C 24.281 354.999 27.428 355.862 31.081 355.862 C 35.301 355.862 39.381 354.662 43.321 352.262 L 45.691 359.102 C 44.638 360.062 42.708 360.985 39.901 361.872 C 37.088 362.759 34.241 363.202 31.361 363.202 Z M 89.759 362.702 L 80.469 362.702 L 69.809 342.682 C 67.602 342.782 65.636 342.832 63.909 342.832 L 61.889 342.832 L 61.889 362.702 L 54.049 362.702 L 54.049 309.782 L 66.069 309.782 C 72.162 309.782 77.179 311.042 81.119 313.562 C 85.052 316.082 87.019 320.175 87.019 325.842 C 87.019 329.389 86.192 332.449 84.539 335.022 C 82.879 337.589 80.419 339.569 77.159 340.962 L 89.759 362.702 Z M 61.889 336.282 L 67.009 336.282 C 71.709 336.282 74.936 335.262 76.689 333.222 C 78.442 331.182 79.319 328.745 79.319 325.912 C 79.319 319.625 75.119 316.482 66.719 316.482 L 61.889 316.482 L 61.889 336.282 Z M 122.299 363.422 C 117.499 363.422 113.072 362.305 109.019 360.072 C 104.959 357.839 101.729 354.659 99.329 350.532 C 96.929 346.405 95.729 341.605 95.729 336.132 C 95.729 330.612 96.929 325.802 99.329 321.702 C 101.729 317.595 104.959 314.439 109.019 312.232 C 113.072 310.025 117.499 308.922 122.299 308.922 C 127.099 308.922 131.529 310.025 135.589 312.232 C 139.642 314.439 142.869 317.595 145.269 321.702 C 147.669 325.802 148.869 330.612 148.869 336.132 C 148.869 341.605 147.669 346.405 145.269 350.532 C 142.869 354.659 139.642 357.839 135.589 360.072 C 131.529 362.305 127.099 363.422 122.299 363.422 Z M 122.299 356.152 C 125.612 356.152 128.636 355.372 131.369 353.812 C 134.109 352.252 136.282 349.972 137.889 346.972 C 139.496 343.972 140.299 340.382 140.299 336.202 C 140.299 331.982 139.496 328.372 137.889 325.372 C 136.282 322.372 134.122 320.102 131.409 318.562 C 128.696 317.029 125.659 316.262 122.299 316.262 C 118.939 316.262 115.892 317.029 113.159 318.562 C 110.419 320.102 108.259 322.372 106.679 325.372 C 105.092 328.372 104.299 331.982 104.299 336.202 C 104.299 340.382 105.116 343.972 106.749 346.972 C 108.382 349.972 110.579 352.252 113.339 353.812 C 116.099 355.372 119.086 356.152 122.299 356.152 Z M 170.033 363.422 C 167.153 363.422 164.3 362.919 161.473 361.912 C 158.64 360.905 156.6 359.775 155.353 358.522 L 159.163 351.682 C 160.17 352.595 161.743 353.545 163.883 354.532 C 166.016 355.512 168.066 356.002 170.033 356.002 C 172.58 356.002 174.656 355.402 176.263 354.202 C 177.87 353.002 178.673 351.349 178.673 349.242 C 178.673 347.609 178.243 346.192 177.383 344.992 C 176.516 343.792 175.46 342.795 174.213 342.002 C 172.966 341.209 171.19 340.235 168.883 339.082 C 166.15 337.742 164.28 336.735 163.273 336.062 C 158.613 332.942 156.283 328.622 156.283 323.102 C 156.283 318.542 157.796 315.049 160.823 312.622 C 163.843 310.202 167.66 308.992 172.273 308.992 C 177.213 308.992 181.413 310.409 184.873 313.242 L 181.053 319.792 C 180.14 318.832 178.856 318.002 177.203 317.302 C 175.543 316.609 173.78 316.262 171.913 316.262 C 169.513 316.262 167.626 316.802 166.253 317.882 C 164.886 318.962 164.203 320.559 164.203 322.672 C 164.203 324.159 164.636 325.489 165.503 326.662 C 166.363 327.842 167.453 328.862 168.773 329.722 C 170.093 330.589 171.883 331.645 174.143 332.892 C 176.303 334.092 177.96 335.042 179.113 335.742 C 180.26 336.435 181.34 337.262 182.353 338.222 C 183.74 339.469 184.866 340.955 185.733 342.682 C 186.6 344.415 187.033 346.312 187.033 348.372 C 187.033 351.592 186.3 354.329 184.833 356.582 C 183.366 358.835 181.35 360.539 178.783 361.692 C 176.216 362.845 173.3 363.422 170.033 363.422 Z M 207.833 363.422 C 204.953 363.422 202.1 362.919 199.273 361.912 C 196.44 360.905 194.4 359.775 193.153 358.522 L 196.963 351.682 C 197.97 352.595 199.543 353.545 201.683 354.532 C 203.816 355.512 205.866 356.002 207.833 356.002 C 210.38 356.002 212.456 355.402 214.063 354.202 C 215.67 353.002 216.473 351.349 216.473 349.242 C 216.473 347.609 216.043 346.192 215.183 344.992 C 214.316 343.792 213.26 342.795 212.013 342.002 C 210.766 341.209 208.99 340.235 206.683 339.082 C 203.95 337.742 202.08 336.735 201.073 336.062 C 196.413 332.942 194.083 328.622 194.083 323.102 C 194.083 318.542 195.596 315.049 198.623 312.622 C 201.643 310.202 205.46 308.992 210.073 308.992 C 215.013 308.992 219.213 310.409 222.673 313.242 L 218.853 319.792 C 217.94 318.832 216.656 318.002 215.003 317.302 C 213.343 316.609 211.58 316.262 209.713 316.262 C 207.313 316.262 205.426 316.802 204.053 317.882 C 202.686 318.962 202.003 320.559 202.003 322.672 C 202.003 324.159 202.436 325.489 203.303 326.662 C 204.163 327.842 205.253 328.862 206.573 329.722 C 207.893 330.589 209.683 331.645 211.943 332.892 C 214.103 334.092 215.76 335.042 216.913 335.742 C 218.06 336.435 219.14 337.262 220.153 338.222 C 221.54 339.469 222.666 340.955 223.533 342.682 C 224.4 344.415 224.833 346.312 224.833 348.372 C 224.833 351.592 224.1 354.329 222.633 356.582 C 221.166 358.835 219.15 360.539 216.583 361.692 C 214.016 362.845 211.1 363.422 207.833 363.422 Z" style="fill: rgb(224, 96, 0); white-space: pre; stroke-width: 6px;"/>
  <path d="M 261.651 363.422 C 256.851 363.422 252.424 362.305 248.371 360.072 C 244.311 357.839 241.081 354.659 238.681 350.532 C 236.281 346.405 235.081 341.605 235.081 336.132 C 235.081 330.612 236.281 325.802 238.681 321.702 C 241.081 317.595 244.311 314.439 248.371 312.232 C 252.424 310.025 256.851 308.922 261.651 308.922 C 266.451 308.922 270.881 310.025 274.941 312.232 C 278.994 314.439 282.221 317.595 284.621 321.702 C 287.021 325.802 288.221 330.612 288.221 336.132 C 288.221 341.605 287.021 346.405 284.621 350.532 C 282.221 354.659 278.994 357.839 274.941 360.072 C 270.881 362.305 266.451 363.422 261.651 363.422 Z M 261.651 356.152 C 264.964 356.152 267.988 355.372 270.721 353.812 C 273.461 352.252 275.634 349.972 277.241 346.972 C 278.848 343.972 279.651 340.382 279.651 336.202 C 279.651 331.982 278.848 328.372 277.241 325.372 C 275.634 322.372 273.474 320.102 270.761 318.562 C 268.048 317.029 265.011 316.262 261.651 316.262 C 258.291 316.262 255.244 317.029 252.511 318.562 C 249.771 320.102 247.611 322.372 246.031 325.372 C 244.444 328.372 243.651 331.982 243.651 336.202 C 243.651 340.382 244.468 343.972 246.101 346.972 C 247.734 349.972 249.931 352.252 252.691 353.812 C 255.451 355.372 258.438 356.152 261.651 356.152 Z M 315.435 363.422 C 308.815 363.422 304.015 361.429 301.035 357.442 C 298.062 353.462 296.575 347.679 296.575 340.092 L 296.575 309.782 L 304.635 309.782 L 304.635 340.242 C 304.635 345.855 305.475 349.875 307.155 352.302 C 308.835 354.722 311.595 355.932 315.435 355.932 C 319.275 355.932 322.025 354.745 323.685 352.372 C 325.338 349.992 326.165 345.949 326.165 340.242 L 326.165 309.782 L 334.305 309.782 L 334.305 340.092 C 334.305 347.632 332.732 353.405 329.585 357.412 C 326.438 361.419 321.722 363.422 315.435 363.422 Z M 353.529 362.702 L 353.529 316.842 L 339.989 316.842 L 339.989 309.782 L 375.199 309.782 L 375.199 316.842 L 361.519 316.842 L 361.519 362.702 L 353.529 362.702 Z" style="fill: rgb(128, 32, 32); white-space: pre;"/>
</svg>